# xmcd
#
# Track frame offsets: 
#        150
#        17769
#        35744
#        54428
#        70352
#        88710
#        104691
#        113257
#        133159
#        149923
#        168129
#        183441
#
# Disc length: 2635 seconds
#
# Revision: 3
# Processed by: cddbd v1.5.2PL0 Copyright (c) Steve Scherf et al.
# Submitted via: ExactAudioCopy v1.3
#
DISCID=ac0a490c
DTITLE=John Mayer - The Search For Everything
DYEAR=2017
DGENRE=Rock
TTITLE0=Still Feel Like Your Man
TTITLE1=Emoji Of A Wave
TTITLE2=Helpless
TTITLE3=Love On The Weekend
TTITLE4=In The Blood
TTITLE5=Changing
TTITLE6=Theme From The Search For Everything
TTITLE7=Moving On And Getting Over
TTITLE8=Never On The Day You Leave
TTITLE9=Rosie
TTITLE10=Roll It On Home
TTITLE11=You're Gonna Live Forever In Me
EXTD=
EXTT0=
EXTT1=
EXTT2=
EXTT3=
EXTT4=
EXTT5=
EXTT6=
EXTT7=
EXTT8=
EXTT9=
EXTT10=
EXTT11=
PLAYORDER=
